<mxfile host="app.diagrams.net" modified="2024-06-06T18:02:55.803Z" agent="Mozilla/5.0 (Windows NT 10.0; Win64; x64; rv:126.0) Gecko/20100101 Firefox/126.0" etag="3gFBfh4yPK3Am2vAN_LD" version="24.4.13" type="github">
  <diagram name="Page-1" id="ZBsWcAgryqf46eoq0MgE">
    <mxGraphModel dx="624" dy="1951" grid="1" gridSize="10" guides="1" tooltips="1" connect="1" arrows="1" fold="1" page="1" pageScale="1" pageWidth="850" pageHeight="1100" math="0" shadow="0">
      <root>
        <mxCell id="0" />
        <mxCell id="1" parent="0" />
        <mxCell id="iouvHYVy-rFpHYlE1Th_-4" style="edgeStyle=orthogonalEdgeStyle;rounded=0;orthogonalLoop=1;jettySize=auto;html=1;" edge="1" parent="1" source="O7FgQCfJIdM5kgI8bMn7-1" target="O7FgQCfJIdM5kgI8bMn7-6">
          <mxGeometry relative="1" as="geometry">
            <Array as="points">
              <mxPoint x="326" y="550" />
              <mxPoint x="426" y="550" />
            </Array>
          </mxGeometry>
        </mxCell>
        <mxCell id="iouvHYVy-rFpHYlE1Th_-7" style="edgeStyle=orthogonalEdgeStyle;rounded=0;orthogonalLoop=1;jettySize=auto;html=1;" edge="1" parent="1" source="O7FgQCfJIdM5kgI8bMn7-1" target="O7FgQCfJIdM5kgI8bMn7-2">
          <mxGeometry relative="1" as="geometry" />
        </mxCell>
        <mxCell id="O7FgQCfJIdM5kgI8bMn7-1" value="Firewall" style="sketch=0;pointerEvents=1;shadow=0;dashed=0;html=1;strokeColor=none;fillColor=#505050;labelPosition=center;verticalLabelPosition=top;verticalAlign=bottom;outlineConnect=0;align=center;shape=mxgraph.office.devices.ip_gateway;fontFamily=Jetbrains Mono;" parent="1" vertex="1">
          <mxGeometry x="260" y="415" width="132.75" height="90" as="geometry" />
        </mxCell>
        <mxCell id="O7FgQCfJIdM5kgI8bMn7-2" value="Internet" style="sketch=0;pointerEvents=1;shadow=0;dashed=0;html=1;strokeColor=none;fillColor=#505050;labelPosition=center;verticalLabelPosition=bottom;verticalAlign=top;outlineConnect=0;align=center;shape=mxgraph.office.concepts.globe_internet;fontFamily=Jetbrains Mono;" parent="1" vertex="1">
          <mxGeometry x="80" y="435.5" width="49" height="49" as="geometry" />
        </mxCell>
        <mxCell id="iouvHYVy-rFpHYlE1Th_-5" style="edgeStyle=orthogonalEdgeStyle;rounded=0;orthogonalLoop=1;jettySize=auto;html=1;" edge="1" parent="1" source="O7FgQCfJIdM5kgI8bMn7-6" target="O7FgQCfJIdM5kgI8bMn7-7">
          <mxGeometry relative="1" as="geometry" />
        </mxCell>
        <mxCell id="O7FgQCfJIdM5kgI8bMn7-6" value="Traffic Inspection" style="sketch=0;pointerEvents=1;shadow=0;dashed=0;html=1;strokeColor=none;fillColor=#505050;labelPosition=center;verticalLabelPosition=bottom;verticalAlign=top;outlineConnect=0;align=center;shape=mxgraph.office.concepts.search;fontFamily=Jetbrains Mono;" parent="1" vertex="1">
          <mxGeometry x="401" y="590" width="49" height="49" as="geometry" />
        </mxCell>
        <mxCell id="iouvHYVy-rFpHYlE1Th_-6" style="edgeStyle=orthogonalEdgeStyle;rounded=0;orthogonalLoop=1;jettySize=auto;html=1;" edge="1" parent="1" source="O7FgQCfJIdM5kgI8bMn7-7" target="O7FgQCfJIdM5kgI8bMn7-1">
          <mxGeometry relative="1" as="geometry">
            <Array as="points">
              <mxPoint x="233" y="550" />
              <mxPoint x="326" y="550" />
            </Array>
          </mxGeometry>
        </mxCell>
        <mxCell id="O7FgQCfJIdM5kgI8bMn7-7" value="Check Access Control List" style="sketch=0;pointerEvents=1;shadow=0;dashed=0;html=1;strokeColor=none;fillColor=#505050;labelPosition=center;verticalLabelPosition=bottom;verticalAlign=top;outlineConnect=0;align=center;shape=mxgraph.office.security.address_book_policies;fontFamily=Jetbrains Mono;" parent="1" vertex="1">
          <mxGeometry x="205" y="588" width="55" height="53" as="geometry" />
        </mxCell>
        <mxCell id="iouvHYVy-rFpHYlE1Th_-1" style="edgeStyle=orthogonalEdgeStyle;rounded=0;orthogonalLoop=1;jettySize=auto;html=1;" edge="1" parent="1" source="O7FgQCfJIdM5kgI8bMn7-12" target="O7FgQCfJIdM5kgI8bMn7-1">
          <mxGeometry relative="1" as="geometry" />
        </mxCell>
        <mxCell id="iouvHYVy-rFpHYlE1Th_-2" value="Outbound Traffic" style="edgeLabel;html=1;align=center;verticalAlign=middle;resizable=0;points=[];" vertex="1" connectable="0" parent="iouvHYVy-rFpHYlE1Th_-1">
          <mxGeometry x="-0.309" relative="1" as="geometry">
            <mxPoint x="-21" y="20" as="offset" />
          </mxGeometry>
        </mxCell>
        <mxCell id="O7FgQCfJIdM5kgI8bMn7-12" value="Intranet" style="sketch=0;pointerEvents=1;shadow=0;dashed=0;html=1;strokeColor=none;fillColor=#505050;labelPosition=center;verticalLabelPosition=bottom;verticalAlign=top;outlineConnect=0;align=center;shape=mxgraph.office.servers.scom;fontFamily=Jetbrains Mono;" parent="1" vertex="1">
          <mxGeometry x="520" y="431.75" width="66" height="56.5" as="geometry" />
        </mxCell>
      </root>
    </mxGraphModel>
  </diagram>
</mxfile>
